<svg width="153" height="40" viewBox="0 0 153 40" fill="none" xmlns="http://www.w3.org/2000/svg">
<path d="M11.6125 37.532C8.95246 37.532 6.71046 36.962 4.88646 35.822C3.06246 34.6567 1.75779 33.0353 0.972461 30.958L6.21646 27.918C7.28046 30.3753 9.14246 31.604 11.8025 31.604C14.2091 31.604 15.4125 30.882 15.4125 29.438C15.4125 28.6273 15.0198 28.0193 14.2345 27.614C13.4238 27.1327 11.9798 26.6133 9.90246 26.056C7.77446 25.4733 5.97579 24.6373 4.50646 23.548C2.88513 22.2307 2.07446 20.3687 2.07446 17.962C2.07446 15.5047 2.94846 13.5413 4.69646 12.072C6.46979 10.6027 8.57246 9.868 11.0045 9.868C13.1831 9.868 15.1085 10.3873 16.7805 11.426C18.4525 12.4393 19.7698 13.9213 20.7325 15.872L15.6025 18.874C14.6398 16.822 13.1071 15.796 11.0045 15.796C10.1178 15.796 9.42113 15.986 8.91446 16.366C8.40779 16.746 8.15446 17.2273 8.15446 17.81C8.15446 18.4433 8.45846 19.0133 9.06646 19.52C9.72513 20.0267 11.0171 20.5587 12.9425 21.116L15.4125 21.914C16.0458 22.1167 16.7805 22.4587 17.6165 22.94C18.5285 23.396 19.2125 23.89 19.6685 24.422C20.8845 25.7393 21.4925 27.386 21.4925 29.362C21.4925 31.87 20.5805 33.8713 18.7565 35.366C16.9325 36.81 14.5511 37.532 11.6125 37.532ZM34.9254 26.436V31.148H45.5654V37H28.8454V10.4H45.3754V16.252H34.9254V20.66H44.4254V26.436H34.9254ZM75.8063 33.542C73.1209 36.202 69.8529 37.532 66.0023 37.532C62.1516 37.532 58.8836 36.202 56.1983 33.542C53.5129 30.882 52.1703 27.6013 52.1703 23.7C52.1703 19.7987 53.5129 16.518 56.1983 13.858C58.8836 11.198 62.1516 9.868 66.0023 9.868C69.8529 9.868 73.1209 11.198 75.8063 13.858C78.4916 16.518 79.8343 19.7987 79.8343 23.7C79.8343 27.6013 78.4916 30.882 75.8063 33.542ZM58.2503 23.7C58.2503 26.0307 58.9849 27.9307 60.4543 29.4C61.9236 30.8693 63.7729 31.604 66.0023 31.604C68.2063 31.604 70.0429 30.8693 71.5123 29.4C73.0069 27.9053 73.7543 26.0053 73.7543 23.7C73.7543 21.3947 73.0069 19.4947 71.5123 18C70.0429 16.5307 68.2063 15.796 66.0023 15.796C63.7729 15.796 61.9236 16.5307 60.4543 18C58.9849 19.4693 58.2503 21.3693 58.2503 23.7Z" fill="#14161B"/>
<path d="M99.86 17.896C99.02 18.736 97.992 19.156 96.776 19.156C95.56 19.156 94.528 18.736 93.68 17.896C92.84 17.048 92.42 16.016 92.42 14.8C92.42 13.584 92.84 12.556 93.68 11.716C94.528 10.868 95.56 10.444 96.776 10.444C97.992 10.444 99.02 10.868 99.86 11.716C100.708 12.556 101.132 13.584 101.132 14.8C101.132 16.016 100.708 17.048 99.86 17.896ZM94.652 16.96C95.236 17.528 95.944 17.812 96.776 17.812C97.616 17.812 98.32 17.528 98.888 16.96C99.464 16.384 99.752 15.664 99.752 14.8C99.752 13.936 99.464 13.22 98.888 12.652C98.32 12.076 97.616 11.788 96.776 11.788C95.936 11.788 95.228 12.076 94.652 12.652C94.084 13.22 93.8 13.936 93.8 14.8C93.8 15.656 94.084 16.376 94.652 16.96ZM106.391 10.6H109.487C110.279 10.6 110.939 10.864 111.467 11.392C112.003 11.92 112.271 12.576 112.271 13.36C112.271 14.136 112.003 14.792 111.467 15.328C110.939 15.856 110.279 16.12 109.487 16.12H107.771V19H106.391V10.6ZM107.771 14.824H109.487C109.895 14.824 110.231 14.688 110.495 14.416C110.759 14.136 110.891 13.784 110.891 13.36C110.891 12.936 110.759 12.588 110.495 12.316C110.231 12.036 109.895 11.896 109.487 11.896H107.771V14.824ZM116.633 10.6H122.753V11.92H120.389V19H119.009V11.92H116.633V10.6ZM127.774 19V10.6H129.154V19H127.774ZM141.396 10.6H142.872V19H141.492V13.012L138.936 17.236H138.768L136.212 13V19H134.832V10.6H136.32L138.852 14.8L141.396 10.6ZM148.547 19V10.6H149.927V19H148.547ZM97.94 26.74L94.172 32.68H98.036V34H92.456V32.86L96.224 26.92H92.54V25.6H97.94V26.74ZM110.198 34H108.71L108.122 32.308H104.546L103.958 34H102.458L105.506 25.6H107.162L110.198 34ZM106.334 27.22L105.002 31.012H107.666L106.334 27.22ZM113.844 25.6H119.964V26.92H117.6V34H116.22V26.92H113.844V25.6ZM124.985 34V25.6H126.365V34H124.985ZM139.063 32.896C138.223 33.736 137.195 34.156 135.979 34.156C134.763 34.156 133.731 33.736 132.883 32.896C132.043 32.048 131.623 31.016 131.623 29.8C131.623 28.584 132.043 27.556 132.883 26.716C133.731 25.868 134.763 25.444 135.979 25.444C137.195 25.444 138.223 25.868 139.063 26.716C139.911 27.556 140.335 28.584 140.335 29.8C140.335 31.016 139.911 32.048 139.063 32.896ZM133.855 31.96C134.439 32.528 135.147 32.812 135.979 32.812C136.819 32.812 137.523 32.528 138.091 31.96C138.667 31.384 138.955 30.664 138.955 29.8C138.955 28.936 138.667 28.22 138.091 27.652C137.523 27.076 136.819 26.788 135.979 26.788C135.139 26.788 134.431 27.076 133.855 27.652C133.287 28.22 133.003 28.936 133.003 29.8C133.003 30.656 133.287 31.376 133.855 31.96ZM150.634 31.3V25.6H152.014V34H150.934L146.974 28.3V34H145.594V25.6H146.674L150.634 31.3Z" fill="#14161B"/>
</svg>
